<?xml version="1.0" encoding="utf-8"?>
<!-- Generator: Adobe Illustrator 21.0.0, SVG Export Plug-In . SVG Version: 6.00 Build 0)  -->
<svg version="1.1" id="Capa_1" xmlns="http://www.w3.org/2000/svg" xmlns:xlink="http://www.w3.org/1999/xlink" x="0px" y="0px"
	 viewBox="0 0 186 162" style="enable-background:new 0 0 186 162;" xml:space="preserve">
<style type="text/css">
	.st0{fill:none;}
	.st1{fill:#F09722;}
	.st2{fill:#F09722;stroke:#F09722;stroke-miterlimit:10;}
</style>
<path class="st0" d="M77.9,71.1c-0.9,0-1.5-0.5-1.8-1.7c-0.9-3.6-2.4-5.5-4.6-5.5c-1.5,0-2.3,1.2-2.3,2.7c0,4.9,7.1,10.3,16.3,16.6
	c9.9,6.7,17.3,17.6,17.3,28.9c0,20.4-12.2,36.6-32.1,36.6c-23.1,0-33.7-16.7-33.7-41c0-0.8,0.6-1.5,1.8-1.5l21-1.1
	c1.1,0,1.7,0.6,1.8,2c0.6,6.1,3.2,12.6,6.8,12.6c2.1,0,3.5-1.4,3.5-4.9c0-3.6-8.5-10.3-18.7-18.5S38.1,76.7,38.1,66.4
	C38.1,50.9,49.6,34,70,34c20.4,0,33,16,33,34c0,1.1-0.6,2-1.8,2L77.9,71.1z"/>
<path id="XMLID_1_" class="st1" d="M77.9,71.1c-0.9,0-1.5-0.5-1.8-1.7c-0.9-3.6-2.4-5.5-4.6-5.5c-1.5,0-2.3,1.2-2.3,2.7
	c0,4.9,7.1,10.3,16.3,16.6c9.9,6.7,17.3,17.6,17.3,28.9c0,20.4-12.2,36.6-32.1,36.6c-23.1,0-33.7-16.7-33.7-41
	c0-0.8,0.6-1.5,1.8-1.5l21-1.1c1.1,0,1.7,0.6,1.8,2c0.6,6.1,3.2,12.6,6.8,12.6c2.1,0,3.5-1.4,3.5-4.9c0-3.6-8.5-10.3-18.7-18.5
	S38.1,76.7,38.1,66.4C38.1,50.9,49.6,34,70,34c20.4,0,33,16,33,34c0,1.1-0.6,2-1.8,2L77.9,71.1z"/>
<path class="st1" d="M115.9,130.6c1.8,3.3,1.4,7.1-1.2,9.5c-0.7,0.6-1,1.2-1.1,2.2c0,2.5-1.3,4.3-3.4,5.3c-2.3,1.1-4.4,0.6-6.4-1
	c-0.8-0.7-1.5-0.9-2.5-0.9c-3.5,0.2-6.6-2.2-7.6-5.7C101.1,137,108.5,133.8,115.9,130.6z M115,133c-6.3,2.7-12.6,5.4-18.8,8.1
	c1.2,2.4,4.1,3.6,6.6,2.7c3.2-1.3,6.4-2.6,9.5-4.1C114.7,138.5,115.8,135.8,115,133z M104.8,145c1.5,1.5,3.2,1.8,4.9,0.9
	c1.5-0.8,2.2-2.2,1.9-3.8C109.4,143,107.1,144,104.8,145z"/>
<path class="st1" d="M110.2,65.8c8.4-4.7,21.9-4,28.3,7.3c2.8,5,7,14.8-1.3,21.2l0.1,0.2c13.5-3.3,16.8,2.8,22.2,12.3
	c0.6,1.1,1.7,2,4.3,1.6c0.6,0,1.4,0.4,1.6,0.8c7.1,12.6-2,18.7-5.2,20.5c-6.9,3.9-14,1.8-19-7l-8-14.3c-1.7-3-3.8-3.7-4.9-3.1
	c-0.6,0.3-0.4,0.8,0,1.5l16.7,29.8c0.3,0.6,0.2,1.4-0.5,1.8l-16.3,9.2c-0.7,0.4-1.4,0.2-1.8-0.6L88.6,79.4c-0.4-0.7-0.2-1.4,0.4-1.7
	L110.2,65.8z M122.8,96.8c0.4,0.7,0.7,0.7,1.1,0.5c2.3-1.3,0.8-3.9-1.6-8.2c-1.2-2.1-3.2-2.6-4.1-2.1c-0.5,0.3-0.6,0.7-0.3,1.3
	L122.8,96.8z"/>
<polygon class="st2" points="72.8,13.2 78.6,14.9 71.9,27.3 "/>
<polygon class="st2" points="45.7,16.2 50.7,14.5 53.1,29.8 "/>
<polygon class="st2" points="24.8,33.9 28.3,29.8 38.2,41.6 "/>
<polygon class="st2" points="17.9,56.9 18.3,51.6 33.3,55.3 "/>
</svg>
